# xmcd CD database file
#
# Track frame offsets:
#	150
#	24362
#	44749
#	65192
#	82351
#	107800
#	122698
#	139285
#	166952
#	185883
#	204670
#
# Disc length: 2998 seconds
#
# Revision: 0
# Processed by: cddbd v1.5.1PL0 Copyright (c) Steve Scherf et al.
# Submitted via: CDex 1.51
#
DISCID=af0bb40b
DTITLE=SEX MACHINEGUNS - HEAVY METAL THUNDER
DYEAR=2005
DGENRE=Heavy Metal
TTITLE0=HEAVY METAL THUNDER
TTITLE1=伝説のキャッチボール
TTITLE2=焼き肉パーティー
TTITLE3=ブラジルカーニバル
TTITLE4=サスペンス劇場
TTITLE5=パンダちゃん
TTITLE6=踏み台昇降運動
TTITLE7=フランケンシュタイン
TTITLE8=出前道一直線
TTITLE9=ダンシング課長
TTITLE10=4
EXTD=YEAR: 2005
EXTT0=
EXTT1=
EXTT2=
EXTT3=
EXTT4=
EXTT5=
EXTT6=
EXTT7=
EXTT8=
EXTT9=
EXTT10=
PLAYORDER=
